<?xml version="1.0" standalone="no"?>
<!DOCTYPE svg PUBLIC "-//W3C//DTD SVG 20010904//EN"
 "http://www.w3.org/TR/2001/REC-SVG-20010904/DTD/svg10.dtd">
<svg version="1.0" xmlns="http://www.w3.org/2000/svg"
 width="500.000000pt" height="500.000000pt" viewBox="0 0 500.000000 500.000000"
 preserveAspectRatio="xMidYMid meet">
<metadata>
Created by potrace 1.14, written by Peter Selinger 2001-2017
</metadata>
<g transform="translate(0.000000,500.000000) scale(0.100000,-0.100000)"
fill="#000000" stroke="none">
<path d="M1805 4334 c-99 -13 -219 -28 -268 -33 -71 -8 -100 -17 -159 -48
-210 -112 -353 -349 -418 -692 -12 -63 -32 -142 -45 -175 -13 -34 -33 -97 -44
-141 l-22 -81 -52 -18 c-86 -30 -211 -91 -288 -141 -96 -62 -170 -140 -210
-220 -37 -76 -37 -65 6 -507 22 -224 27 -253 54 -312 43 -96 85 -149 165 -210
134 -102 373 -200 511 -210 39 -3 111 -10 160 -16 50 -5 123 -10 163 -10 l73
0 -8 58 c-14 99 -8 429 9 507 11 50 13 76 6 89 -10 18 -11 18 -25 -7 -7 -15
-18 -27 -23 -27 -15 0 -12 26 4 39 8 7 12 20 9 30 -6 25 37 116 85 179 62 83
147 148 267 207 128 63 263 104 465 141 163 29 151 25 280 109 91 59 231 135
276 149 18 5 22 1 28 -26 4 -21 2 -34 -6 -40 -10 -6 -10 -8 1 -8 18 0 6 -13
-14 -16 -8 -1 -13 2 -9 7 9 15 -13 10 -26 -6 -10 -12 -8 -17 14 -26 14 -7 23
-16 20 -21 -13 -20 27 -17 63 4 103 64 242 109 406 133 28 5 37 10 37 26 0 17
5 19 34 14 26 -5 50 0 98 21 34 15 67 31 71 35 5 4 -40 25 -100 48 -59 23
-114 45 -122 49 -8 5 -31 57 -51 118 -48 144 -108 279 -175 391 -30 51 -55
102 -55 114 0 29 -189 216 -335 333 -113 90 -233 156 -354 195 -88 29 -259 27
-496 -5z m48 -123 c82 -38 183 -111 285 -206 108 -101 188 -200 266 -329 71
-118 190 -345 183 -352 -2 -2 -105 1 -228 7 -212 11 -718 6 -799 -7 l-36 -6
-38 86 c-34 76 -38 92 -32 136 20 151 103 383 187 522 37 61 132 178 145 178
3 0 32 -13 67 -29z m-171 -1426 c-40 -12 -79 -28 -87 -35 -9 -7 -18 -11 -20
-8 -10 10 62 53 100 59 77 13 79 7 7 -16z m-136 -58 c-81 -50 -214 -222 -254
-330 -11 -29 -26 -91 -33 -137 l-12 -83 -114 7 c-128 7 -251 31 -369 72 -88
30 -216 91 -253 121 l-23 19 43 35 c60 49 155 100 276 149 96 38 106 40 145
29 26 -7 70 -9 110 -5 86 8 356 76 433 109 65 28 81 33 51 14z"/>
<path d="M3574 3058 l-19 -23 23 19 c12 11 22 21 22 23 0 8 -8 2 -26 -19z"/>
<path d="M4033 3033 c9 -2 25 -2 35 0 9 3 1 5 -18 5 -19 0 -27 -2 -17 -5z"/>
<path d="M4205 3034 c-86 -20 -202 -64 -132 -50 85 17 72 10 -88 -52 -406
-156 -748 -257 -1180 -352 -71 -15 -143 -31 -160 -35 l-30 -8 25 22 25 23 -30
-7 c-110 -25 -238 -79 -325 -138 -73 -50 -149 -127 -143 -144 4 -11 15 -6 44
23 21 20 36 41 33 45 -2 4 0 10 5 13 26 17 -2 -29 -53 -85 -187 -205 -292
-469 -315 -790 -4 -63 -9 -97 -10 -76 -2 55 -21 45 -21 -12 0 -85 20 -248 40
-327 41 -159 124 -276 233 -328 62 -29 279 -66 386 -66 162 0 264 33 596 192
279 134 854 400 927 429 69 27 184 86 247 126 206 132 372 404 432 708 22 109
19 383 -5 468 -20 75 -76 169 -139 236 -43 45 -171 135 -210 147 -12 4 -26 13
-32 20 -11 15 -86 26 -120 18z m98 -21 c-13 -2 -33 -2 -45 0 -13 2 -3 4 22 4
25 0 35 -2 23 -4z m-100 -10 c-7 -2 -19 -2 -25 0 -7 3 -2 5 12 5 14 0 19 -2
13 -5z m327 -137 c19 -24 6 -19 -26 10 -19 17 -22 22 -8 16 11 -6 26 -18 34
-26z m-1445 -286 c4 -6 -6 -10 -22 -9 -25 0 -26 1 -8 9 11 5 21 9 22 9 1 1 5
-3 8 -9z m-785 -194 c0 -2 -8 -10 -17 -17 -16 -13 -17 -12 -4 4 13 16 21 21
21 13z m-80 -40 c0 -2 -8 -10 -17 -17 -16 -13 -17 -12 -4 4 13 16 21 21 21 13z
m840 -53 c-48 -17 -80 -37 -80 -49 0 -9 -11 -14 -27 -14 -19 0 -24 -3 -15 -9
11 -7 10 -9 -3 -15 -9 -3 -14 -10 -11 -15 3 -5 -10 -24 -29 -42 -19 -19 -35
-39 -35 -45 0 -7 -15 -25 -34 -42 -19 -17 -32 -33 -29 -36 4 -3 1 -6 -6 -6 -6
0 -22 -9 -34 -21 -28 -26 -169 -94 -231 -111 -26 -7 -56 -21 -66 -31 -59 -55
34 104 107 183 110 119 229 190 391 235 79 21 143 33 102 18z m-570 -167 c0
-2 -8 -10 -17 -17 -16 -13 -17 -12 -4 4 13 16 21 21 21 13z m-380 -32 c0 -10
6 -14 15 -10 10 3 15 -1 15 -13 0 -11 5 -21 10 -23 6 -2 15 -32 21 -68 10 -58
9 -74 -14 -158 -19 -69 -34 -103 -61 -134 -20 -23 -36 -45 -36 -50 0 -4 -6 -8
-14 -8 -7 0 -19 -6 -25 -14 -7 -9 -30 -14 -58 -13 l-46 0 7 66 c11 119 64 279
129 389 31 51 57 68 57 36z m340 -18 c0 -2 -8 -10 -17 -17 -16 -13 -17 -12 -4
4 13 16 21 21 21 13z m2042 -408 c-48 -69 -162 -176 -238 -224 -61 -38 -264
-129 -264 -118 0 2 48 27 108 56 59 28 119 61 133 72 15 12 39 30 54 41 67 48
85 64 155 138 41 42 75 77 77 77 2 0 -9 -19 -25 -42z m-542 -362 c0 -2 -7 -7
-16 -10 -8 -3 -12 -2 -9 4 6 10 25 14 25 6z m-560 -261 c-14 -8 -29 -14 -35
-14 -5 0 1 6 15 14 14 8 30 14 35 14 6 0 -1 -6 -15 -14z m-50 -19 c0 -2 -7 -7
-16 -10 -8 -3 -12 -2 -9 4 6 10 25 14 25 6z m-130 -64 c-157 -79 -452 -210
-500 -223 -60 -16 -209 -17 -235 -1 -20 13 -19 13 1 7 40 -11 108 -7 184 9 87
19 151 37 165 46 6 4 32 15 59 25 27 10 75 33 108 51 32 18 58 31 58 30 0 -2
53 20 118 49 145 66 170 70 42 7z"/>
<path d="M2361 2684 c0 -11 3 -14 6 -6 3 7 2 16 -1 19 -3 4 -6 -2 -5 -13z"/>
<path d="M2235 2680 c-7 -12 2 -12 30 0 19 8 19 9 -2 9 -12 1 -25 -3 -28 -9z"/>
<path d="M2450 2686 c0 -9 40 -13 46 -5 3 5 -6 9 -20 9 -14 0 -26 -2 -26 -4z"/>
<path d="M2450 2620 c-13 -8 -13 -10 2 -10 9 0 20 5 23 10 8 13 -5 13 -25 0z"/>
<path d="M1985 2610 c-13 -6 -15 -9 -5 -9 8 0 22 4 30 9 18 12 2 12 -25 0z"/>
<path d="M2208 2603 c6 -2 18 -2 25 0 6 3 1 5 -13 5 -14 0 -19 -2 -12 -5z"/>
<path d="M2458 2563 c7 -3 16 -2 19 1 4 3 -2 6 -13 5 -11 0 -14 -3 -6 -6z"/>
<path d="M2198 2543 c7 -3 16 -2 19 1 4 3 -2 6 -13 5 -11 0 -14 -3 -6 -6z"/>
<path d="M2136 2271 c-9 -9 -16 -22 -16 -27 0 -5 5 -1 11 9 6 9 14 15 19 12 5
-3 11 -1 14 4 12 18 -11 20 -28 2z"/>
</g>
</svg>
